<?xml version="1.0" encoding="utf-8"?>
<!-- Generator: Adobe Illustrator 28.1.0, SVG Export Plug-In . SVG Version: 6.00 Build 0)  -->
<svg version="1.1" id="Livello_1" xmlns="http://www.w3.org/2000/svg" xmlns:xlink="http://www.w3.org/1999/xlink" x="0px" y="0px"
	 viewBox="0 0 59.6 25.4" style="enable-background:new 0 0 59.6 25.4;" xml:space="preserve">
<style type="text/css">
	.st0{fill-rule:evenodd;clip-rule:evenodd;}
</style>
<path class="st0" d="M59.6,13.4c0-4.2-2-7.5-5.9-7.5c-3.9,0-6.3,3.3-6.3,7.5c0,5,2.8,7.5,6.8,7.5c2,0,3.4-0.4,4.6-1.1v-3.3
	c-1.1,0.6-2.4,0.9-4,0.9c-1.6,0-3-0.6-3.2-2.5h8C59.5,14.7,59.6,13.8,59.6,13.4L59.6,13.4z M51.4,11.9c0-1.9,1.1-2.6,2.2-2.6
	c1,0,2.1,0.8,2.1,2.6H51.4z M41,5.9c-1.6,0-2.6,0.8-3.2,1.3l-0.2-1h-3.6v19.2l4.1-0.9l0-4.7c0.6,0.4,1.5,1,2.9,1
	c2.9,0,5.6-2.4,5.6-7.6C46.6,8.5,43.9,5.9,41,5.9L41,5.9z M40,17.2c-1,0-1.5-0.3-1.9-0.8l0-6.1c0.4-0.5,1-0.8,2-0.8
	c1.5,0,2.5,1.7,2.5,3.8C42.5,15.6,41.5,17.2,40,17.2z M28.3,4.9l4.1-0.9V0.7l-4.1,0.9V4.9z M28.3,6.2h4.1v14.4h-4.1V6.2z M23.8,7.4
	l-0.3-1.2H20v14.4h4.1v-9.8c1-1.3,2.6-1,3.1-0.9V6.2C26.7,6,24.8,5.6,23.8,7.4L23.8,7.4z M15.6,2.6l-4,0.9l0,13.2
	c0,2.4,1.8,4.2,4.3,4.2c1.3,0,2.3-0.2,2.9-0.5V17c-0.5,0.2-3.1,1-3.1-1.5V9.7h3.1V6.2h-3.1L15.6,2.6z M4.5,10.4
	c0-0.6,0.5-0.9,1.4-0.9c1.4,0,2.8,0.4,4.1,1.1V6.7C8.6,6.1,7.3,5.9,5.9,5.9c-3.3,0-5.6,1.7-5.6,4.7c0,4.5,6.3,3.8,6.3,5.8
	c0,0.8-0.7,1-1.6,1c-1.4,0-3.1-0.6-4.5-1.3v3.9C2,20.6,3.6,20.9,5,20.9c3.4,0,5.8-1.7,5.8-4.6C10.8,11.3,4.5,12.2,4.5,10.4L4.5,10.4
	z"/>
</svg>
